<svg xmlns="http://www.w3.org/2000/svg" width="308" height="112" fill="none"><path fill="#A29DB7" d="M294.7 22.7a6.7 6.7 0 1 0 0-13.4 6.7 6.7 0 0 0 0 13.4zm-196 8.9C113.6 31.3 126 43 126.4 58c.4 14.9-11.4 27.3-26.3 27.7h-1.4c-14.9.4-27.3-11.4-27.7-26.3-.4-14.9 11.4-27.4 26.3-27.8h1.4zm0 44c9.1.2 16.7-7 16.9-16.2v-.8c0-9.3-7.5-16.9-16.8-16.9s-16.9 7.5-16.9 16.8c-.3 9.1 6.9 16.7 16 17 .2.1.5.1.8.1zm61.4-44c14.9.3 26.8 12.6 26.5 27.5-.2 15-12.6 26.9-27.5 26.6-14.7-.3-26.5-12.3-26.5-27-.1-14.8 11.7-26.9 26.5-27 .4-.1.7-.1 1-.1zm0 44c9.1.2 16.7-7 16.9-16.2v-.8c0-9.3-7.5-16.9-16.8-16.9s-16.9 7.5-16.9 16.8c-.3 9.1 6.9 16.7 16 17 .3.1.6.1.8.1zm129.2 7.8V32.8c0-.7.5-1.2 1.2-1.2h8.3c.6 0 1.2.5 1.2 1.2v50.6c0 .6-.5 1.2-1.2 1.2h-8.3c-.6 0-1.2-.5-1.2-1.2zm-31.2-51.8c-7.4-.2-14.4 3.5-18.5 9.7-3.3-6-9.6-9.7-18.5-9.7s-14.1 5-15.7 7.6V31c0-.6-.5-1.2-1.1-1.2-.2 0-.5.1-.7.2l-8.7 5c-.2.1-.3.3-.3.5v47.8c0 .7.5 1.2 1.2 1.2h8.4c.7 0 1.2-.5 1.2-1.2V55.4c0-8.6 6.3-13.6 14-13.6s12.2 5 12.2 13.6v28.1c0 .6.5 1.2 1.2 1.2h8.4c.6 0 1.2-.5 1.2-1.2V54.7c.3-8.2 6.5-12.9 14.1-12.9s12.2 5 12.2 13.6v28.1c0 .6.5 1.2 1.2 1.2h8.4c.6 0 1.2-.5 1.2-1.2V53.1c-.1-12.6-7.6-21.5-21.4-21.5zm-221.6 0c-7.1-.1-13.9 2.5-19.1 7.3V3.1c0-.7-.5-1.2-1.2-1.2-.2 0-.4.1-.6.2L7 7.1c-.2.1-.3.3-.3.5v75.8c0 .6.5 1.2 1.2 1.2h8.4c.6 0 1.2-.5 1.2-1.2v-5c5.2 4.8 12.1 7.4 19.1 7.3 14.9.4 27.3-11.4 27.7-26.3.3-15-11.5-27.4-26.4-27.8h-1.4zm0 44c-9.1.2-16.7-7-16.9-16.2v-.8c0-9.3 7.5-16.9 16.9-16.9 9.4 0 16.9 7.5 16.9 16.9.3 9.1-6.9 16.7-16 17h-.9z"/></svg>