<svg xmlns="http://www.w3.org/2000/svg" width="191" height="53" fill="none"><g fill="#A29DB7" clip-path="url(#a)"><path d="M189.722 46.077c0-2.938-2.084-5.092-4.957-5.092-2.869 0-4.956 2.154-4.956 5.092 0 2.938 2.087 5.09 4.956 5.09 2.873.002 4.957-2.152 4.957-5.09zm-6.257.26v3.332h-1.077v-7.345h2.672c1.563 0 2.284.685 2.284 2.024 0 .818-.557 1.472-1.272 1.565v.034c.619.1.848.654.978 1.664.099.651.229 1.795.458 2.058h-1.272c-.294-.685-.263-1.664-.492-2.48-.192-.62-.52-.848-1.235-.848h-1.044v-.004zm1.334-.945c1.044 0 1.338-.555 1.338-1.044 0-.586-.294-1.042-1.338-1.042h-1.334v2.086h1.334zm-6.163.685c0-3.623 2.873-6.072 6.129-6.072 3.26 0 6.13 2.449 6.13 6.072s-2.87 6.072-6.13 6.072c-3.256 0-6.129-2.446-6.129-6.072z"/><path fill-opacity=".8" d="m157.4 51.092-7.07-7.934-7 7.934h-14.732l14.401-16.2-14.401-16.204h15.194l7.132 7.87 6.869-7.87h14.667l-14.332 16.138 14.527 16.266H157.4zm-57.102 0V.045h28.3v11.378h-16.314v7.265h16.314v10.947h-16.314v10.048h16.314v11.409h-28.3z"/><path d="M88.358.045v20.89h-.13c-2.643-3.04-5.946-4.1-9.776-4.1-7.847 0-13.76 5.342-15.837 12.403-2.368-7.78-8.47-12.55-17.521-12.55-7.352 0-13.153 3.304-16.184 8.685v-6.689H13.717V11.42h16.58V.042H.177v51.047H13.72V29.632h13.5a20.372 20.372 0 0 0-.62 5.046c0 10.65 8.127 18.119 18.494 18.119 8.72 0 14.466-4.1 17.506-11.57H50.994c-1.57 2.247-2.761 2.91-5.9 2.91-3.64 0-6.776-3.18-6.776-6.946H61.95c1.024 8.458 7.606 15.751 16.635 15.751 3.895 0 7.464-1.918 9.643-5.157h.13v3.304h11.94V.042h-11.94v.003zM38.695 29.787c.752-3.242 3.266-5.362 6.402-5.362 3.452 0 5.835 2.055 6.464 5.362H38.695zm42.42 13.535c-4.402 0-7.136-4.107-7.136-8.394 0-4.58 2.38-8.988 7.136-8.988 4.931 0 6.897 4.408 6.897 8.988 0 4.346-2.084 8.394-6.897 8.394z"/></g><defs><clipPath id="a"><path fill="#fff" d="M0 0h191v53H0z"/></clipPath></defs></svg>