<svg xmlns="http://www.w3.org/2000/svg" width="416" height="109" fill="none"><path fill="#A29DB7" d="M116 .005v84.003l10.809.034V44.038h26.061V33.465h-26.061V10.574h33.94V0L116 .005zm64.204 17.052a7.05 7.05 0 1 0 0-14.098 7.05 7.05 0 0 0 0 14.098zm-5.498 10.573v56.395h10.809V27.63h-10.809z"/><path fill="#A29DB7" fill-rule="evenodd" d="M225.604 25.986c-14.353 0-24.37 12.14-24.37 26.552 0 14.413 10.017 26.552 24.37 26.552 6.571 0 11.987-2.544 15.928-6.685v7.508c0 9.343-7.339 17.153-16.918 17.153-3.443 0-6.864-1.335-9.589-3.213l-5.416 9.38a27.604 27.604 0 0 0 15.005 4.406c15.313 0 27.727-12.413 27.727-27.726V27.63h-10.809v5.04c-3.941-4.14-9.357-6.685-15.928-6.685zm-13.561 26.552c0-8.946 6.843-15.978 14.736-15.978 7.893 0 14.736 7.032 14.736 15.978 0 8.947-6.843 15.978-14.736 15.978-7.893 0-14.736-7.032-14.736-15.978z" clip-rule="evenodd"/><path fill="#A29DB7" d="M291.288 36.56c-6.391 0-11.573 5.416-11.573 11.807v35.658h-10.808V27.63h10.808v5.166c3.168-4.094 7.833-6.81 13.923-6.81 7.573 0 13.386 3.761 16.753 9.518 3.744-5.56 9.85-9.519 17.2-9.519 12.302 0 19.959 9.926 20.032 22.205v35.834h-10.809V48.367c0-6.39-5.181-11.807-11.572-11.807-6.392 0-11.573 5.416-11.573 11.807v35.658H302.86V48.367c0-6.39-5.181-11.807-11.572-11.807z"/><path fill="#A29DB7" fill-rule="evenodd" d="M405.191 34.024c-4.808-4.965-11.394-8.038-19.033-8.038-16.08 0-27.491 13.615-27.491 29.842 0 16.227 11.411 29.841 27.491 29.841 7.639 0 14.225-3.072 19.033-8.037v6.393H416V27.63h-10.809v6.393zm-35.716 21.804c0-10.766 8.243-19.268 17.858-19.268s17.858 8.502 17.858 19.268-8.243 19.268-17.858 19.268-17.858-8.502-17.858-19.268z" clip-rule="evenodd"/><g fill="#A29DB7" clip-path="url(#a)"><path d="M36 54c0-9.84 7.977-17.816 17.817-17.816S71.633 44.16 71.633 54s-7.976 17.817-17.816 17.817S36 63.84 36 54zM.367 89.633c0-9.84 7.976-17.817 17.816-17.817H36v17.817c0 9.84-7.977 17.817-17.817 17.817S.367 99.473.367 89.633zM36 .55v35.633h17.817c9.84 0 17.816-7.977 17.816-17.817S63.657.55 53.817.55H36zM.367 18.367c0 9.84 7.976 17.816 17.816 17.816H36V.55H18.183C8.343.55.367 8.527.367 18.367z"/><path d="M.367 54c0 9.84 7.976 17.817 17.816 17.817H36V36.184H18.183C8.343 36.184.367 44.16.367 54z"/></g><defs><clipPath id="a"><path fill="#fff" d="M0 0h72v108H0z"/></clipPath></defs></svg>