<svg xmlns="http://www.w3.org/2000/svg" width="82" height="26" fill="none"><g fill="#A29DB7" clip-path="url(#a)"><path d="M7.165 7.154h15.226c0-3.947-3.234-7.105-7.165-7.154H0c0 3.947 3.234 7.154 7.165 7.154zM0 16.133V26h.05c4.279 0 7.762-3.503 7.762-7.746v-2.072h1.294c3.98 0 7.214-3.207 7.214-7.154H7.215C3.235 9.028 0 12.186 0 16.133zm39.11-5.082v13.222h-3.036V11.94h-3.93v12.334h-3.036V11.94h-1.742V9.324h1.742V7.597c0-2.762 1.692-4.538 4.379-4.538h5.423v2.614h-5.473c-.746 0-1.294.691-1.294 1.875v1.776h5.225c.945 0 1.741.79 1.741 1.727zm.994-1.727h2.986v2.171h.05c.746-1.233 2.14-2.565 4.577-2.565 3.284 0 5.324 2.319 5.324 5.97v9.423h-3.035v-9.226c0-2.566-1.343-3.553-3.085-3.553-2.09 0-3.781 1.48-3.781 4.293v8.436h-3.036V9.324zm13.634 7.45c0-4.638 2.836-7.894 7.563-7.894 4.329 0 6.717 2.763 7.065 6.167h-3.134c-.15-1.924-1.493-3.552-3.931-3.552-2.737 0-4.428 2.22-4.428 5.328 0 3.305 1.94 5.378 4.428 5.378 2.388 0 3.682-1.777 3.93-3.257h3.135c-.398 3.06-2.836 5.871-7.065 5.871-4.528-.098-7.563-3.256-7.563-8.041zM69.063 2.516h3.035v6.759c0 .69 0 1.184-.05 2.22h.05c.747-1.234 2.14-2.566 4.578-2.566C79.96 8.93 82 11.25 82 14.9v9.423h-3.035v-9.226c0-2.565-1.344-3.552-3.085-3.552-2.09 0-3.782 1.48-3.782 4.292v8.437h-3.035V2.516z"/></g><defs><clipPath id="a"><path fill="#fff" d="M0 0h82v26H0z"/></clipPath></defs></svg>