<svg xmlns="http://www.w3.org/2000/svg" width="300" height="90" fill="none"><path fill="#A29DB7" d="M292.935 40.434c.378-.852.707-1.636 1.064-2.406.154-.333.699-.496 1.028-.36.188.078.131.23.131.36 0 1.498 0 2.997.008 4.49 0 .282-.088.375-.377.375-.289 0-.377-.1-.377-.38.011-1.06.006-2.12 0-3.183 0-.164.037-.336-.07-.548-.335.805-.765 1.52-1.021 2.314-.062.188-.117.34-.358.36-.24.023-.358-.088-.45-.304-.263-.628-.549-1.248-.834-1.868-.055-.12-.079-.27-.261-.34-.1.188-.053.391-.054.582-.006.982-.01 1.967 0 2.947 0 .288-.063.419-.389.418-.326-.001-.338-.178-.338-.418.005-1.435 0-2.87.007-4.304 0-.188-.124-.507.227-.507.309 0 .698-.195.899.265.327.75.68 1.492 1.023 2.235.037.078.075.142.142.273zm-5.422.188c0-.576-.03-1.154.011-1.727.032-.468-.148-.61-.588-.557-.247.033-.502-.007-.755.008-.265.011-.397-.044-.399-.353 0-.327.166-.342.413-.34 1.145.006 2.29.008 3.435 0 .274 0 .398.077.394.374-.003.3-.154.331-.39.325-.298-.01-.598.022-.893-.008-.365-.033-.489.09-.481.464.022 1.199 0 2.398.011 3.597 0 .29.005.502-.405.494-.41-.008-.356-.247-.356-.495.004-.596.004-1.19.003-1.782zm-67.09 11.343c.805-.697 1.537-1.33 2.364-1.837 2.375-1.458 4.968-1.908 7.72-1.671 1.293.1 2.534.408 3.723.923 1.698.75 2.96 1.967 3.991 3.465.172.248.26.297.452.011 1.761-2.614 4.281-4.046 7.376-4.422 3.065-.375 5.918.222 8.283 2.341 1.192 1.07 1.859 2.45 2.141 4.017.18 1.046.267 2.1.261 3.16.013 5.369 0 10.738.017 16.11 0 .457-.128.56-.576.56-2.845-.022-5.69-.022-8.536 0-.413 0-.526-.1-.524-.515.016-4.23.018-8.459.005-12.688a12.998 12.998 0 0 0-.32-3.013c-.823-3.465-4.784-3.487-6.55-1.847-1.086 1.008-1.446 2.295-1.603 3.685-.136 1.182-.083 2.368-.085 3.552-.006 3.45-.004 6.899.004 10.347 0 .357-.079.482-.465.478a1130.75 1130.75 0 0 0-8.678 0c-.405 0-.49-.124-.489-.502.014-4.276.008-8.552.009-12.83 0-.874-.03-1.745-.2-2.606-.315-1.602-1.28-2.603-2.865-2.997-1.869-.461-3.715.237-4.696 1.762-.589.915-.717 1.966-.724 3.008-.033 4.526-.04 9.053-.02 13.58 0 .484-.132.589-.6.584a547.03 547.03 0 0 0-8.536 0c-.398 0-.493-.11-.492-.496.01-8.287.01-16.575 0-24.862 0-.407.131-.483.507-.481 2.877.011 5.754.011 8.631 0 .406 0 .499.127.487.504-.028.853-.012 1.713-.012 2.68zM191.5 71.996c-.591.57-1.162 1.124-1.806 1.586-1.467 1.057-3.127 1.592-4.918 1.794-2.774.313-5.417-.127-7.861-1.451-3.884-2.103-6.407-5.263-7.101-9.664-.566-3.607-.149-7.097 1.947-10.2 2.252-3.324 5.384-5.358 9.421-5.946 2.969-.435 5.765.033 8.352 1.582.687.41 1.269.96 1.9 1.498.117-.188.067-.374.067-.546 0-5.757-.003-11.516-.008-17.274 0-.475.126-.605.605-.602 2.877.023 5.755.023 8.629 0 .362 0 .481.09.481.468-.01 13.64-.01 27.278 0 40.917 0 .351-.069.48-.46.478a575.105 575.105 0 0 0-8.772 0c-.378 0-.491-.118-.479-.481.019-.72.003-1.437.003-2.159zm-5.778-4.495c.345 0 .695.033 1.037-.006 3.509-.424 5.878-4.027 4.839-7.41-1.214-3.95-5.925-5.357-9.187-3.268-2.376 1.522-3.039 3.684-2.678 5.892.442 2.72 3.012 4.98 5.989 4.792zM54.352 47.827c3.457-.005 6.337.456 8.982 1.873 3.68 1.978 6.276 4.87 7.204 9.005 1.415 6.31-1.65 12.399-7.558 15.178-2.098.986-4.322 1.448-6.63 1.606-2.462.169-4.896.033-7.281-.594-4.369-1.148-7.72-3.62-9.573-7.773-2.057-4.61-1.538-10.241 2.3-14.329 2.402-2.557 5.355-4 8.78-4.604 1.41-.241 2.826-.372 3.776-.362zm.261 7.867a6.69 6.69 0 0 0-1.405.111c-3.529.686-6.214 4.714-4.28 8.5 1.303 2.554 4.013 3.824 7.01 3.29 3.39-.604 5.575-3.944 4.827-7.273-.53-2.359-3.054-4.744-6.152-4.628zm90.652-3.711a12.408 12.408 0 0 1 2.251-2.08c1.39-.982 2.968-1.44 4.649-1.61 2.147-.214 4.263-.133 6.295.657 3.089 1.205 4.896 3.457 5.485 6.694.16.88.188 1.761.188 2.65-.003 5.275-.001 10.55.009 15.823 0 .417-.111.516-.523.513a553.2 553.2 0 0 0-8.584 0c-.477 0-.555-.145-.554-.578.016-4.338.016-8.675 0-13.013.002-.904-.09-1.8-.275-2.687-.331-1.518-1.298-2.459-2.779-2.785-1.953-.431-3.71-.007-5.082 1.536-.661.743-.882 1.662-1.001 2.622-.138 1.103-.077 2.212-.079 3.317-.008 3.698-.006 7.397.006 11.095 0 .385-.094.496-.493.495a565.512 565.512 0 0 0-8.679 0c-.403 0-.487-.122-.486-.5.01-8.287.01-16.573 0-24.858 0-.42.116-.514.524-.51 2.876.022 5.752.022 8.629 0 .377 0 .519.077.505.482-.029.874-.006 1.745-.006 2.737zm-15.854 5.744c0 2.716.059 5.432-.015 8.148-.094 3.51-1.666 6.195-4.801 7.912-1.895 1.037-3.949 1.533-6.083 1.788a30.61 30.61 0 0 1-4.983.157c-3.047-.135-6.018-.633-8.659-2.292-2.52-1.581-3.935-3.85-4.245-6.808a20.18 20.18 0 0 1-.077-2.1c0-5.072 0-10.146-.011-15.218 0-.412.086-.552.534-.55 2.877.023 5.754.023 8.631 0 .425 0 .555.09.553.539-.017 4.76-.008 9.52-.013 14.281 0 .772.083 1.522.395 2.235.555 1.269 1.599 1.945 2.902 2.217 1.178.246 2.374.23 3.528-.172 1.581-.553 2.411-1.7 2.628-3.327.095-.714.09-1.43.09-2.146 0-4.37.006-8.74-.01-13.112 0-.413.104-.518.519-.514 2.877.022 5.754.022 8.631 0 .385 0 .504.089.501.486-.018 2.824-.015 5.651-.015 8.477zm152.662 5.679h-9.478c-.546 0-.592.055-.52.595.071.524.105 1.052.244 1.567.443 1.628 1.426 2.755 3.069 3.258 1.424.436 2.862.523 4.31.088 1.049-.309 1.874-.936 2.52-1.793.188-.247.372-.367.697-.366 2.767.011 5.534.011 8.301 0 .455 0 .48.135.351.513-1.459 4.285-4.546 6.743-8.873 7.818-1.407.347-2.839.474-4.289.498-2.513.044-4.989-.178-7.35-1.067-4.631-1.746-7.565-4.99-8.447-9.873-.672-3.724-.183-7.305 1.893-10.557 1.589-2.49 3.824-4.214 6.641-5.113 3.813-1.218 7.696-1.312 11.543-.225 4.762 1.34 7.582 4.607 8.876 9.262.46 1.653.525 3.348.503 5.053 0 .375-.223.337-.464.337l-9.527.005zm-4.371-5.172h4.999c.197 0 .453.056.359-.292-.35-1.295-.929-2.446-2.07-3.246-1.14-.801-2.432-.925-3.773-.873-2.452.089-4.304 1.646-4.829 4.027-.075.343.017.389.323.388 1.66-.009 3.326-.004 4.991-.004zM80.268 65.456c0-2.87-.007-5.742.009-8.616 0-.385-.094-.51-.492-.496-.849.033-1.698 0-2.547.011-.287.006-.377-.089-.377-.374.01-2.278.01-4.557 0-6.837 0-.322.114-.392.41-.386.832.022 1.667-.022 2.498.022.437.023.518-.13.51-.527a59.687 59.687 0 0 1 0-3.416c.074-2.375.477-4.69 1.827-6.704 1.797-2.68 4.322-4.38 7.49-5.092 2.221-.499 4.409-.399 6.547.448.403.16.531.358.526.786-.023 2.262-.01 4.525-.01 6.788 0 .65 0 .656-.566.375-1.01-.506-2.06-.81-3.207-.745-1.586.089-2.663 1.15-2.81 2.716-.155 1.65-.078 3.302-.117 4.952-.009.336.106.42.429.417 1.934-.01 3.867 0 5.8-.01.36 0 .486.077.483.467-.017 2.2-.017 4.4 0 6.6 0 .401-.094.542-.523.537-1.855-.022-3.71-.011-5.566-.009-.692 0-.616-.078-.616.638v16.994c0 .635 0 .635-.638.635-2.86 0-5.721-.007-8.584.008-.37 0-.478-.089-.472-.468.003-2.902-.004-5.81-.004-8.714zM297.311 8.913c-1.842-2.2-6.184-2.743-8.871-1.489-.566.265-1.157.478-1.665.843L270.652 19.88c-1.148.995-2.188 2.125-2.351 3.593-.149 1.34 0 2.448 1.18 3.644 2.67 2.699 7.382 2.716 9.629 1.356 2.064-1.245 15.699-11.249 17.923-12.88l.577-.573c.66-.902 1.802-3.598-.299-6.107zm-67.823 17.793c1.182-1.195 1.329-2.304 1.18-3.643-.163-1.468-1.203-2.598-2.351-3.593L212.195 7.857c-.509-.366-1.098-.58-1.665-.843-2.688-1.254-7.03-.711-8.867 1.488-2.101 2.51-.959 5.204-.295 6.104l.578.574c2.214 1.634 15.849 11.638 17.915 12.882 2.245 1.357 6.957 1.343 9.627-1.356zm20.113-3.036c3.442 0 6.327-1.555 7.146-4.443.108-.4.161-.805.16-1.218l.077-10.412c0-.089.007-.176.007-.264 0-4.002-3.25-5.862-7.33-5.862-4.057 0-7.354 2.16-7.387 6.126l-.007 10.496c-.007.41.034.816.122 1.218.7 3.003 3.661 4.36 7.212 4.36zm21.279 7.831c-5.471-2.703-12.702-4.401-22.145-4.401-15.821 0-26.43 4.957-31.82 12.162h.081l-.023.033 63.673-.006c-2.321-2.985-5.512-5.69-9.766-7.788zM23.259 71.682c-.472.387-.856.716-1.254 1.03-1.726 1.379-3.698 2.117-5.906 2.31-3.146.282-6.103-.264-8.794-1.943-3.246-2.019-5.062-4.99-5.62-8.723-.472-3.126-.162-6.181 1.335-9.002 2.143-4.036 5.5-6.48 10.093-7.152 2.407-.354 4.754-.15 6.996.858 1.003.45 1.845 1.124 2.61 1.894.149.15.275.321.412.484l.142-.09c0-.694.016-1.39-.007-2.084-.012-.351.071-.488.463-.486 2.893.022 5.785.022 8.678 0 .324 0 .43.078.43.417-.01 8.459.014 16.918-.033 25.38-.012 1.96-.242 3.921-1.174 5.718-1.379 2.66-3.532 4.504-6.226 5.757-2.1.978-4.339 1.388-6.647 1.53-2.866.179-5.684-.032-8.395-.979-3.442-1.195-6.143-3.293-7.868-6.534-.317-.596-.49-1.242-.622-1.903-.068-.341-.014-.449.37-.447 2.405.023 4.812.01 7.215.01h2.736c.195 0 .357 0 .446.237.578 1.538 1.815 2.231 3.353 2.424 1.516.187 3.013.067 4.392-.69 1.755-.965 2.623-2.488 2.805-4.434.108-1.16.085-2.322.07-3.582zm-5.701-4.088c3.28.09 6.17-2.577 6.173-5.978 0-3.298-2.595-6.066-6.149-6.066-3.764 0-6.108 3.103-6.125 6.037-.019 3.11 2.693 6.06 6.1 6.007z"/></svg>