<svg xmlns="http://www.w3.org/2000/svg" width="129" height="45" fill="none"><path fill="#A29DB7" d="M.114 4.606S6.843 3.273 11.21.238c0 0 .969-1.09.969 1.393v16.675s-.242 1.76 1.393-.424c0 0 5.24-4.641 11.602-3.466 1.532.285 2.946 1.044 3.972 2.212 1.165 1.33 2.405 3.534 2.373 6.89v16.675s-.06 2.85 4.791 2.063c0 0 2.486-.424 2.365-3.456V22.004s.06-1.518-3.031-2.184l.06-.969s8.308-2.002 11.218-4.307c0 0 .848-1.392.848 1.393v24.256s.787 2.882 4.67 2.198c0 0 3.395-.139 3.698-2.928v-16.75c0-.92-.502-1.774-1.322-2.188-.513-.256-1.218-.448-2.194-.466 0 0-1.247-.67-.42-1.393.27-.239.626-.356.986-.385 1.272-.1 5.547-.67 10.712-3.858 0 0 1.001-1.03 1.001 1.393v2.608s.424.242 1.517-.638c0 0 8.165-7.823 14.866-.698.285.303.516.652.727 1.012.281.48.862 1.097 1.717.138 0 0 4.66-5.168 11.545-3.914 2.27.413 4.339 1.667 5.539 3.633.688 1.126 1.208 2.608 1.165 4.492v17.705s-.345 1.186 2.237 2.059c.157.053.314.12.449.217.36.242.88.741.136 1.243-.307.207-.681.3-1.051.3H91.013c-.467 0-.92-.221-1.162-.617-.217-.352-.26-.79.42-1.14 0 0 2.758-.242 2.487-2.97v-16.1s.324-3.715-2.803-4.826c-.973-.346-2.034-.296-3.014.028-1.432.47-3.438 1.6-3.612 4.221v17.98s.153 1.242 2.333 1.638c0 0 1.639.367.752 1.247-.367.363-.88.541-1.4.541H72.4c-.4 0-.791-.182-1.009-.516-.238-.37-.256-.873.845-1.272 0 0 1.667-.242 2.03-2.305V22.937c0-.48-.06-.958-.2-1.418-.363-1.196-1.356-3.084-4.025-3.074-.192 0-.384.021-.577.054-1.015.174-3.95.897-4.324 3.484V40.4s.434 1.528 2.162 1.667c.435.035.862.17 1.19.463.384.338.655.809-.068 1.2a2.24 2.24 0 0 1-1.065.25H20.262c-.606 0-1.094-.57-.93-1.15.082-.282.303-.532.791-.639 0 0 2.152.182 1.82-2.365V23.183s.14-3.598-2.853-4.638c-.83-.289-1.731-.282-2.58-.057-1.527.399-4.135 1.482-4.388 4.275V40.68s.107 1.222 2.28 1.482c.374.046.727.239.93.552.238.37.256.873-.845 1.272H1.061c-.427 0-.83-.267-.94-.68-.1-.371.021-.806.9-1.048 0 0 1.821-.363 2.003-2.668V8.093S2.828 6.423.676 5.856c-.48-.125-.794-.613-.634-1.083.022-.053.043-.11.072-.167z"/><path fill="#A29DB7" d="M43.16 12.357a5.005 5.005 0 1 0 0-10.01 5.005 5.005 0 0 0 0 10.01zm64.581 11.136s.805-10.584 14.577-9.094c.363.039.723.106 1.079.195 1.7.435 5.889 1.9 5.319 5.697a2.02 2.02 0 0 1-.912 1.392c-.859.549-2.376 1.176-3.965.164-.552-.352-.962-.887-1.211-1.492l-1.044-2.508a2.24 2.24 0 0 0-.47-.72c-.52-.53-1.635-1.268-3.53-.716-1.016.296-1.899.987-2.309 1.96-.388.915-.441 2.19.877 3.622l2.778 2.195a20.393 20.393 0 0 0 2.665 1.792c2.326 1.3 6.608 4.064 6.198 9.521 0 0-.637 8.051-13.234 8.867 0 0-5.97-.217-8.585-3.085-1.596-1.752-1.118-4.624.966-5.757a3.223 3.223 0 0 1 2.019-.37c1.162.164 2.145.94 2.686 1.98.431.83.891 1.988.866 3.135 0 0 .41 1.956 2.273 1.956 0 0 4.73.591 5.504-2.775 0 0 .591-2.682-2.052-4.574-.399-.285-.859-.47-1.261-.748l-4.824-3.363c0 .004-4.499-2.362-4.41-7.274z"/></svg>