<svg xmlns="http://www.w3.org/2000/svg" width="300" height="69" fill="none"><path fill="#A29DB7" fill-rule="evenodd" d="M31.521 29.195c0-15.698-2.594-22.206-9.728-22.206-6.292 0-9.47 4.562-9.47 20.395 0 15.631 2.465 22.072 9.73 22.072 6.42 0 9.468-4.495 9.468-20.26zM0 28.793C0 11.15 11.74 4.172 22.182 4.172c11.156 0 21.662 6.91 21.662 23.547 0 17.779-11.739 24.555-22.182 24.555C10.507 52.274 0 44.894 0 28.794zm96.669 1.14 11.09-.604c0-8.118-1.037-11.07-4.929-11.07-3.308 0-5.902 3.22-6.161 11.674zM86.42 33.89c0-11.673 8.366-18.181 16.928-18.181 8.846 0 14.398 4.52 14.714 16.348a.408.408 0 0 1-.398.424h-20.59a.409.409 0 0 0-.397.424c.29 10.657 4.293 13.598 10.887 13.598 3.218 0 5.813-.774 7.985-1.77a.382.382 0 0 1 .459.108l.863 1.049a.418.418 0 0 1-.009.543c-2.366 2.58-7.183 5.84-13.514 5.84-11.286 0-16.928-6.978-16.928-18.383zm133.56.538c0-13.552-2.529-16.102-6.94-16.102-4.086 0-6.486 3.087-6.486 14.626 0 13.753 2.14 16.704 6.875 16.704 3.892 0 6.551-2.347 6.551-15.228zm-24.322-.336c0-12.881 8.82-18.382 17.577-18.382 9.405 0 17.642 5.837 17.642 18.047 0 12.88-8.692 18.517-17.642 18.517-9.405 0-17.577-5.905-17.577-18.182zm63.007.336c0-13.552-2.529-16.102-6.94-16.102-4.086 0-6.486 3.087-6.486 14.626 0 13.753 2.141 16.704 6.875 16.704 3.892 0 6.551-2.347 6.551-15.228zm-24.322-.336c0-12.881 8.82-18.382 17.577-18.382 9.404 0 17.641 5.837 17.641 18.047 0 12.88-8.691 18.517-17.641 18.517-9.405 0-17.577-5.905-17.577-18.182zM144.725 15.71c-4.734 0-9.015 2.214-12.452 4.763h-.26l.128-4.23a.522.522 0 0 0-.572-.545l-9.076 1.064a.54.54 0 0 0-.468.542v33.632c0 .294.23.532.514.532h9.284a.523.523 0 0 0 .514-.532V22.821c1.427-.335 3.762-.872 6.033-.872 3.048 0 4.475 1.275 4.475 5.367v23.62c0 .294.23.532.514.532h9.349a.524.524 0 0 0 .515-.532V24.701c0-6.039-2.984-8.99-8.498-8.99zm36.323 29.787c-1.038.403-2.789 1.477-5.448 1.477-4.93 0-7.524-3.422-7.524-13.955 0-11.07 3.243-14.625 7.912-14.625 2.401 0 3.957 1.409 5.06 2.817v24.286zM191.36 9.136c0-3.468.114-6.654.175-7.962a.62.62 0 0 0-.665-.656l-9.342 1.098a.539.539 0 0 0-.48.544v9.391c0 2.415.13 4.897.13 4.897-1.362-.402-3.179-.738-4.929-.738-10.119 0-18.811 5.569-18.811 19.523 0 12.21 6.292 17.04 12.713 17.04 4.54 0 8.172-1.878 10.962-4.36h.259l-.132 3.703c-.015.395.318.706.696.651l8.898-1.027a.624.624 0 0 0 .526-.626V9.136zm102.306 6.574c-3.762 0-7.459 2.952-9.469 5.166h-.26l.126-4.509c.011-.383-.31-.689-.678-.646l-8.968 1.041a.54.54 0 0 0-.469.543v33.532c0 .348.274.63.611.63h9.091a.622.622 0 0 0 .611-.63v-27.21c.908-.873 2.4-1.745 3.567-1.745.584 0 .973.134 1.362.872 1.233 2.08 2.208 3.282 4.994 3.282 2.53 0 4.792-2.074 4.792-5.294 0-3.288-2.197-5.032-5.31-5.032zM64.123 49.59c-2.205 0-3.956-1.006-5.124-2.415v-24.42c1.038-.402 2.66-1.208 5.254-1.208 4.93 0 7.719 3.354 7.719 12.948 0 12.278-2.725 15.095-7.849 15.095zm5.773-33.879c-4.54 0-8.172 2.214-10.897 4.629h-.324l.125-4.014a.588.588 0 0 0-.644-.616l-9 1.052a.54.54 0 0 0-.47.543v48.578c0 .326.274.58.587.543l9.258-1.082a.539.539 0 0 0 .468-.543v-9.105c0-2.348-.064-4.093-.064-4.093 1.426.402 3.567.67 4.93.67 10.83 0 18.743-6.104 18.743-20.059 0-12.277-6.55-16.503-12.712-16.503z" clip-rule="evenodd"/></svg>