<svg xmlns="http://www.w3.org/2000/svg" width="300" height="78" fill="none"><path fill="#A29DB7" d="m261.718 18.22-6.402 40.126a1.03 1.03 0 0 0 .235.831 1.03 1.03 0 0 0 .789.356h7.577a1.12 1.12 0 0 0 1.114-.938l6.402-40.125a1.03 1.03 0 0 0-.235-.832 1.032 1.032 0 0 0-.789-.356h-7.577a1.107 1.107 0 0 0-1.114.938zm-8.09 11.71h-7.189a1.117 1.117 0 0 0-1.112.936l-.238 1.477s-5.584-6.04-15.469-1.958c-5.672 2.337-8.394 7.165-9.552 10.702 0 0-3.677 10.75 4.638 16.666 0 0 7.711 5.691 16.393-.35l-.15.943a1.027 1.027 0 0 0 .591 1.092c.136.063.284.095.434.095h7.194a1.106 1.106 0 0 0 1.113-.938l4.376-27.478a1.013 1.013 0 0 0-.238-.83 1.026 1.026 0 0 0-.791-.357zm-10.579 15.186a7.96 7.96 0 0 1-2.736 4.926 8.108 8.108 0 0 1-5.338 1.915 7.363 7.363 0 0 1-2.26-.328c-3.103-.986-4.875-3.938-4.366-7.137a7.972 7.972 0 0 1 2.74-4.924 8.12 8.12 0 0 1 5.335-1.921 7.363 7.363 0 0 1 2.26.33c3.122.982 4.886 3.938 4.373 7.14h-.008v-.001zm-38.387.759a16.44 16.44 0 0 0 10.631-3.894 16.143 16.143 0 0 0 5.515-9.802c1.259-7.948-5.011-14.885-13.899-14.885H192.59a1.115 1.115 0 0 0-1.112.937l-6.404 40.126a1.027 1.027 0 0 0 .591 1.092c.137.063.284.095.434.095h7.581a1.116 1.116 0 0 0 1.113-.938l1.879-11.782a1.104 1.104 0 0 1 1.114-.94l6.876-.009zm6.342-14.058c-.468 2.939-2.763 5.102-7.152 5.102h-5.613l1.705-10.686h5.511c4.539.008 6.016 2.659 5.549 5.593v-.009zm-34.567-1.206-8.672 14.494-4.401-14.387a1.102 1.102 0 0 0-1.072-.788h-7.826a.838.838 0 0 0-.84.71.809.809 0 0 0 .039.393l7.887 24.234-7.133 11.42a.808.808 0 0 0-.107.641.822.822 0 0 0 .394.518c.13.075.279.113.429.111h8.429a1.402 1.402 0 0 0 1.198-.668l22.028-36.083a.811.811 0 0 0 .017-.843.832.832 0 0 0-.738-.419h-8.426a1.4 1.4 0 0 0-1.206.667zm-26.407-.681h-7.195a1.12 1.12 0 0 0-1.114.94l-.233 1.475s-5.588-6.04-15.474-1.958c-5.669 2.337-8.393 7.165-9.547 10.702 0 0-3.68 10.75 4.634 16.666 0 0 7.712 5.691 16.395-.35l-.15.942a1.023 1.023 0 0 0 .59 1.092c.136.064.284.096.434.096h7.194a1.12 1.12 0 0 0 1.112-.938l4.377-27.478a1.022 1.022 0 0 0-.59-1.094 1.041 1.041 0 0 0-.433-.095zm-10.579 15.19a7.975 7.975 0 0 1-2.739 4.92 8.118 8.118 0 0 1-5.334 1.92 7.37 7.37 0 0 1-2.257-.329c-3.102-.987-4.872-3.938-4.362-7.139a7.97 7.97 0 0 1 2.749-4.931 8.121 8.121 0 0 1 5.351-1.912 7.357 7.357 0 0 1 2.261.33c3.091.981 4.851 3.936 4.34 7.14h-.009zm-38.386.757a16.433 16.433 0 0 0 10.621-3.899 16.137 16.137 0 0 0 5.509-9.799c1.26-7.946-5.011-14.884-13.896-14.884h-14.32a1.118 1.118 0 0 0-1.114.936l-6.383 40.115a1.019 1.019 0 0 0 .59 1.093c.136.062.284.096.434.096h7.577a1.119 1.119 0 0 0 1.114-.94l1.876-11.782a1.101 1.101 0 0 1 1.114-.938l6.878.002zm6.341-14.06c-.467 2.94-2.76 5.103-7.15 5.103h-5.612l1.7-10.686h5.512c4.54.008 6.016 2.66 5.55 5.592v-.008zm-55.322-12.46c.17-8.86-7.156-15.658-17.23-15.658H14.017a2.041 2.041 0 0 0-2.014 1.716L3.654 57.457a1.649 1.649 0 0 0 .943 1.758c.217.1.454.152.693.152h12.345l-1.93 12.05a1.65 1.65 0 0 0 .943 1.759c.217.1.454.152.693.152h10.056c.486 0 .918-.174 1.288-.487.367-.316.428-.75.504-1.23l2.953-17.325c.075-.477.319-1.098.687-1.413.369-.316.691-.487 1.178-.487h6.153c9.867 0 18.236-6.997 19.767-16.726 1.083-6.905-1.885-13.188-7.843-16.303z"/><path fill="#A29DB7" d="M20.306 40.175 17.23 59.624l-1.931 12.2a1.647 1.647 0 0 0 .944 1.757c.217.1.454.151.693.151H27.58a2.039 2.039 0 0 0 2.01-1.716l2.806-17.731a2.032 2.032 0 0 1 2.012-1.716h6.265c9.866 0 18.236-7.18 19.768-16.909 1.085-6.905-2.4-13.19-8.358-16.305a16.51 16.51 0 0 1-.194 2.197c-1.53 9.726-9.903 16.907-19.766 16.907h-9.806a2.042 2.042 0 0 0-2.012 1.716z"/><path fill="#A29DB7" d="M17.23 59.624H4.845a1.66 1.66 0 0 1-1.592-1.204 1.647 1.647 0 0 1-.042-.706L11.562 4.9a2.031 2.031 0 0 1 2.011-1.716h21.281c10.074 0 17.4 7.312 17.23 16.171-2.507-1.312-5.453-2.061-8.68-2.061H25.663a2.041 2.041 0 0 0-2.014 1.716l-3.342 21.165-3.08 19.449h.002z"/></svg>