<svg xmlns="http://www.w3.org/2000/svg" width="300" height="115" fill="none"><path fill="#A29DB7" d="M254.671 77.91h-10.688V35.556h10.688V77.91z"/><path fill="#A29DB7" fill-rule="evenodd" d="M291.071 38.607a17.564 17.564 0 0 1 5.096 4.888c2.554 3.6 3.831 7.96 3.831 13.079 0 6.436-1.8 11.602-5.405 15.495-3.605 3.895-8.381 5.84-14.333 5.84h-16.472V35.56h14.081c5.574 0 9.976 1.015 13.202 3.048zm-16.595 29.714h4.588c6.834 0 10.25-3.81 10.25-11.428 0-3.748-.881-6.643-2.643-8.684-1.761-2.04-4.273-3.064-7.542-3.064h-4.653v23.176zM9.738 9.071 44.374 0l11.938 12.252L68.44.198l34.49 9.635 8.983 34.986-12.13 12.055 11.935 12.252-9.543 34.834-34.636 9.071-11.938-12.255-12.133 12.057-34.486-9.635L0 68.214 12.131 56.16.193 43.901l9.545-34.83zm31.626 1.92L23.12 15.77l14.588 14.972L49.343 19.18l-7.979-8.19zm29.915.245L63.17 19.29l11.45 11.753 14.826-14.731-18.166-5.076zM11.124 41.04l7.976 8.19 11.633-11.562-14.583-14.97-5.026 18.342zM96.3 23.348 81.474 38.083l11.45 11.75 8.105-8.057L96.3 23.348zm-40.1 2.871L44.564 37.781l11.448 11.752 11.633-11.562L56.2 26.22zM37.593 44.707 25.959 56.27l11.448 11.752L49.045 56.46 37.593 44.707zm36.912.303L62.87 56.57l11.446 11.753 11.635-11.562L74.505 45.01zM18.99 63.195l-8.11 8.06 4.733 18.424L30.436 74.95 18.99 63.195zm36.909.303L44.264 75.06l11.45 11.752L67.348 75.25 55.9 63.498zm36.91.304L81.174 75.364l14.59 14.972 5.024-18.346-7.978-8.188zM37.292 81.986 22.469 96.72l18.167 5.077 8.11-8.06-11.453-11.752zm36.912.302L62.57 93.85l7.977 8.19 18.242-4.778-14.585-14.974zm70.641-46.729c6.077 0 10.372 1.057 12.888 3.174 3.27 2.752 4.905 6.5 4.905 11.24 0 4.572-1.474 8.234-4.402 10.984-2.6 2.454-6.686 3.68-12.257 3.68h-4.591v13.274h-10.247V35.56h13.704zm-3.457 19.495h4.336c4.443 0 6.667-1.645 6.667-4.926 0-3.324-2.369-4.986-7.108-4.986h-3.895v9.912z" clip-rule="evenodd"/><path fill="#A29DB7" d="M169.488 35.557h10.686v32.766h12.386v9.586h-23.072V35.557z"/><path fill="#A29DB7" fill-rule="evenodd" d="m196.71 77.909 16.785-42.352h8.484l16.666 42.352h-11.633L225 71.752h-14.586l-2.2 6.157H196.71zm21.062-29.207-4.403 14.476h8.736l-4.333-14.476z" clip-rule="evenodd"/></svg>