<svg xmlns="http://www.w3.org/2000/svg" width="366" height="105" fill="none"><g fill="#A29DB7" clip-path="url(#a)"><path d="M133.359 39.8c-1.028-.347-3.1-.678-5.155-.678-6.183 0-12.713 4.801-12.713 10.977V79.27h-14.089V27.45h13.392v5.15c3.099-3.775 8.933-6.176 15.115-6.176 2.056 0 3.1.348 4.807.348l-1.357 13.029zM149.171 0c4.807 0 8.934 3.774 8.934 8.924 0 5.149-4.127 8.923-9.282 8.923s-9.282-3.774-9.282-8.923c.349-5.15 4.476-8.924 9.63-8.924zm6.862 79.272h-14.088V27.451h14.088v51.821zm41.22-52.848c-5.834 0-10.988 2.053-15.115 5.15V27.45h-13.74V105h14.088V75.498c4.127 3.096 8.585 4.8 14.088 4.8 7.559 0 15.116-3.426 19.574-8.923 4.127-4.8 6.531-10.977 6.531-18.179 0-15.1-11.336-26.772-25.426-26.772zm-1.705 41.175c-8.585 0-14.419-5.827-14.419-14.403 0-8.575 5.834-14.403 14.419-14.403 7.559 0 13.391 6.524 13.391 14.403 0 8.227-6.182 14.403-13.391 14.403zm97.887-64.503h14.088V79.27h-14.088V3.096zm70.773 67.93c-5.155 5.827-13.391 9.271-21.298 9.271-15.464 0-27.133-10.629-27.133-27.102 0-14.404 9.962-27.103 25.426-27.103 14.419 0 24.728 12.003 24.728 26.424 0 1.375 0 2.748-.348 4.123h-36.414c.679 7.202 6.531 12.351 14.088 12.351 5.834 0 10.64-3.426 13.06-5.828l7.891 7.864zm-13.06-24.354c-.349-4.453-4.458-9.271-10.31-9.271-5.851 0-10.64 4.453-10.989 9.271h21.299zm-91.376-20.248c-5.834 0-10.989 2.053-15.116 5.15V27.45h-13.391V105h14.088V75.498c4.127 3.096 8.585 4.8 14.088 4.8 7.559 0 15.116-3.426 19.574-8.923 4.127-4.8 6.531-10.977 6.531-18.179-.347-15.1-11.684-26.772-25.774-26.772zm-1.705 41.175c-8.585 0-14.419-5.827-14.419-14.403 0-8.575 5.834-14.403 14.419-14.403 7.558 0 13.391 6.524 13.391 14.403 0 8.227-6.183 14.403-13.391 14.403zM54.366 8.575c-5.834 3.427-9.282 9.602-9.282 16.126 0 3.427 1.376 6.872 3.1 9.95 1.375 2.748 2.055 7.55-2.752 9.95-3.43 2.054-7.905.679-9.96-2.747-2.056-2.748-4.459-5.498-7.56-7.55-5.833-3.427-12.713-3.427-18.545 0C3.534 37.73.085 43.922.085 50.446c0 6.523 3.43 12.699 9.282 16.125C15.2 70 22.08 70 27.913 66.572c3.099-1.722 5.503-4.453 7.21-7.55 1.376-2.401 5.155-5.497 9.96-2.748 3.431 2.053 4.459 6.524 2.752 9.95-1.725 3.096-2.751 6.524-2.751 9.95 0 6.524 3.43 12.7 9.282 16.126 5.834 3.427 12.713 3.427 18.546 0 5.834-3.426 9.281-9.602 9.281-16.126 0-6.523-3.43-12.699-9.281-16.125-3.1-1.723-6.531-2.402-10.31-2.402-3.1 0-7.21-2.053-7.21-7.202 0-4.122 3.1-7.202 7.21-7.202 3.43 0 7.21-.679 10.31-2.401 5.834-3.427 9.281-9.602 9.281-16.126 0-6.524-3.43-12.7-9.281-16.126-2.751-1.723-6.183-2.401-9.282-2.401-3.082-.013-6.53.683-9.264 2.386z"/></g><defs><clipPath id="a"><path fill="#fff" d="M0 0h366v105H0z"/></clipPath></defs></svg>