<svg xmlns="http://www.w3.org/2000/svg" width="169" height="120" fill="none"><g fill="#A29DB7" clip-path="url(#a)"><path d="m90.696 54.884 3.126-9.103c5.358-.02 10.709-.06 16.06-.114l3.153 9.163c4.659-.02 9.372.067 14.024.04L108.504 4.02c-2.205.087-11.166.323-13.277.376L81.217 43.92c-5.741-.007-11.113-.04-16.968-.094V33.6l10.46.12v-9.216l-10.46-.155v-9.815c11.375.262 16.625.209 16.618.209L78.73 3.79s-13.606-.221-28.463-.847v51.873c2.944.013 17.653.06 27.058.08v.007c1.715 0 3.342 0 4.948.007h1.25c2.347-.027 4.673-.027 7.174-.027zm16.013-18.46c-3.233.046-6.474.087-9.714.114l4.874-14.185 4.84 14.07zm26.051 18.433c4.652-.033 9.297.014 13.943-.027l.067-41.902a764.202 764.202 0 0 0 15.206-1.352L159.819 0a630.07 630.07 0 0 1-40.074 3.496l-2.165 11.22a816.876 816.876 0 0 0 15.18-.787v40.928zM23.193 15.24c0-6.312 13.493-4.611 19.718-.947l.578-12.471C42.017 1.365 36.061.007 28.955.007 18.905.007 10.13 5.95 10.13 15.395c0 16.84 22.985 18.003 22.985 24.76 0 8.887-15.24 3.946-22.985-3.389v14.206s5.7 5.297 17.029 5.297c12.484 0 18.823-8.134 18.823-16.9.007-17.076-22.79-17.15-22.79-24.129zM168.928 120l-18.414-31.362 16.289-25.122h-15.717l-14.273 22.386c.054-7.449-.053-14.904 0-22.36-4.705-.013-9.243-.02-13.956-.026v52.282s9.217.565 13.956.935V92.571l13.775 25.311c6.878.706 13.123 1.432 18.34 2.118zM64.276 93.546c3.475-.053 10.427-.127 10.427-.127v-9.311s-6.952.053-10.427.087v-9.849c9.748.007 16.598.06 16.598.06l-2.158-10.81H50.292v51.9c6.548-.424 24.558-.834 30.676-.854l2.158-10.992c-6.286 0-12.571.074-18.85.209V93.546zm36.329-.107c3.234.047 6.474.1 9.708.175v-9.298a1549.83 1549.83 0 0 0-9.708-.12V74.42l16.686.108-2.151-10.918s-19.012-.013-28.518-.013v51.052c9.68.006 20.235.316 30.615.847l2.252-11.072c-5.472-.195-13.902-.471-18.877-.579-.007-3.475-.007-6.944-.007-10.406zm-77.297 1.304 8.484-.417.006 10.81c-12.746 1.156-17.99-3.072-17.99-15.684 0-11.704 9.473-14.622 18.199-14.622 7.69 0 11.771.854 11.771.854l-2.306-12.128c-2.03-.1-5.627-.215-11.73-.215C15.636 63.34 0 70.09 0 91.448c0 17.977 12.29 27.12 27.879 25.655 10.978-1.029 15.913-1.251 15.913-1.251V84.564l-18.333.41-2.151 9.769z"/></g><defs><clipPath id="a"><path fill="#fff" d="M0 0h169v120H0z"/></clipPath></defs></svg>