<svg xmlns="http://www.w3.org/2000/svg" width="543" height="170" fill="none"><g fill="#A29DB7" clip-path="url(#a)"><path d="m17.91 152 6.98-30.81S-4.12 77.26 35.5 36.84c11.8-12.04 27.39-19.8 44.18-21.29 21.23-1.88 50.5 4.06 69.98 42.83 0 0 22.64 55.83-30.13 87.15 0 0-35.91 22.13-72.68-1.19L17.91 152z"/><path d="m7.36 140.68 5.87 1.02-3.45 18.64 18.26-4.47 1.28 6s-14.07 3.24-17.6 4.76c-1.39.6-2.93.79-4.39.42-1.24-.31-2.54-1.02-3.41-2.5 0 0-2.4-2.72-.69-7.2.63-1.64 1.11-3.33 1.49-5.04l2.64-11.63zm27.45 14.34 10.09-3.62s14.68 8.3 20.04 9.19v5.62s-17.49-4.72-21.17-8.04l-7.68 3.06-1.28-6.21zm38.3 6.209-1.02 6s10.98 4.47 25.28 0l-.77-6s-15.71 3.2-23.49 0zM14.99 134.81l-5.8-1.53 2.25-8.51c-2.24-3.92-7.96-14.5-7.96-20.09h6c0 3.58 4.76 13.03 7.77 18.14l.63 1.08-2.89 10.91zM2.7 98.27c-3.75-12.47-1.07-25.34-.95-25.88l5.87 1.26c-.02.12-2.47 11.94.83 22.89L2.7 98.27zm6.69-31.86-5.85-1.33c2.23-9.83 8.82-22.08 9.09-22.59l5.28 2.85c-.06.12-6.47 12.05-8.52 21.07zM21.93 38.7l-5.14-3.1c4.31-7.15 17.38-17.59 17.93-18.03l3.74 4.69c-3.54 2.82-13.41 11.27-16.53 16.44zm22.52-19.87-3.7-4.72c9.96-7.81 23.32-9.84 23.88-9.93l.87 5.94c-.12.01-12.37 1.91-21.05 8.71zm122.63 79.44-5.75-1.73c3.3-10.95.86-22.77.83-22.89l5.87-1.25c.12.53 2.8 13.4-.95 25.87zm-6.69-31.86c-2.05-9.03-8.46-20.95-8.52-21.07l5.28-2.85c.28.52 6.86 12.76 9.09 22.59l-5.85 1.33zM147.85 38.7c-3.12-5.17-12.99-13.62-16.53-16.44l3.74-4.69c.55.44 13.62 10.89 17.93 18.03l-5.14 3.1zm-22.52-19.87c-8.72-6.83-20.93-8.69-21.05-8.71l.87-5.94c.56.08 13.92 2.12 23.88 9.93l-3.7 4.72zM96.06 8.47c-11.8-3.82-22.18-.08-22.29-.04l-2.1-5.62c.5-.19 12.37-4.53 26.23-.05l-1.84 5.71zm8.28 158.26-.59-5.97.3 2.99-.31-2.98c.08-.01 8.15-.98 21.35-9.34l3.21 5.07c-14.58 9.21-23.58 10.19-23.96 10.23zm30.32-13.78-3.37-4.97c.1-.07 10.1-6.94 16.13-17.09l5.16 3.06c-6.73 11.35-17.47 18.69-17.92 19zm20.94-24.27-4.4-4.08c5.84-6.3 9.15-20.45 9.18-20.59l5.85 1.34c-.14.65-3.69 15.85-10.63 23.33zm96.87-62.27h15.66s4.26-15.13-14.75-22.4c-8.49-3.25-17.89-3.4-26.56-.66-10.67 3.36-23.51 11.15-19.79 29.05 0 0 4.85 14.33 20.68 16.29l13.25 2.74c3.57.74 6.91 2.47 9.38 5.15 1.98 2.15 3.61 5.02 3.16 8.43-.25 1.94-1.42 3.63-3.11 4.62-3.69 2.16-11.82 5.77-20.64 2.2 0 0-8.68-3.57-8.68-12h-16.6s-.4 19.93 21.31 26.8c6.69 2.12 13.84 2.27 20.7.8 9.91-2.13 23.73-7.88 24.38-23.42 0 0 3.89-16.78-21.89-25.5-2.39-.81-4.86-1.35-7.36-1.72-5.69-.85-18.3-3.77-16.71-12.7 0 0 5.62-12.51 21.96-6.38-.01-.01 5.1 1.07 5.61 8.7zm30.15 59.69V63.46h17.06v62.64h-17.06zm31.19 7.94 16.2-2.52c.3 2.2 4.01 4.72 5.12 5.54 1.52 1.18 3.92 1.77 7.2 1.77 4.19 0 7.34-.65 9.43-1.95 1.41-.87 2.48-2.26 3.2-4.19.5-1.38.74-3.91.74-7.61v-9.14c-4.8 6.76-10.86 10.14-18.18 10.14-8.16 0-14.62-3.56-19.38-10.68-3.74-5.62-5.6-12.62-5.6-21 0-10.5 2.45-18.52 7.35-24.06 4.9-5.54 10.98-8.32 18.26-8.32 7.51 0 13.7 3.4 18.58 10.2v-8.79h15.03v56.21c0 7.39-.59 12.92-1.77 16.57-1.18 3.66-2.84 6.53-4.97 8.61-2.13 2.08-4.98 3.72-8.55 4.9-3.56 1.18-8.07 1.77-13.52 1.77-10.29 0-17.59-1.82-21.89-5.46-4.3-3.64-4.06-4.55-6.74-9.6-.26-.45-.55-1.6-.51-2.39zM329 93.48c0 6.65 1.25 11.51 3.74 14.6 2.5 3.09 5.57 4.63 9.23 4.63 3.92 0 7.24-1.58 9.95-4.75 2.71-3.17 4.06-7.85 4.06-14.07 0-6.49-1.3-11.3-3.89-14.45-2.59-3.15-5.87-4.72-9.83-4.72-3.85 0-7.02 1.54-9.52 4.63-2.49 3.09-3.74 7.8-3.74 14.13zm114.88 32.62h-16.06V94.13c0-6.76-.34-11.14-1.03-13.12-.69-1.99-1.8-3.53-3.34-4.63-1.54-1.1-3.4-1.65-5.57-1.65-2.78 0-5.28.79-7.49 2.36-2.21 1.57-3.73 3.66-4.54 6.25s-1.23 7.39-1.23 14.39v28.37h-16.06V63.46h14.92v9.2c5.3-7.08 11.97-10.62 20.01-10.62 3.54 0 6.78.66 9.72 1.98 2.93 1.32 5.15 3 6.66 5.04 1.5 2.04 2.55 4.36 3.14 6.96.59 2.59.89 6.31.89 11.15v38.93h-.02zm29.64-42.28-14.83-2.65c1.67-5.92 4.54-10.31 8.61-13.16 4.07-2.85 10.12-4.27 18.15-4.27 7.29 0 12.72.86 16.29 2.57 3.57 1.71 6.08 3.89 7.53 6.52 1.45 2.64 2.18 7.47 2.18 14.51l-.17 18.93c0 5.39.12 7.6.17 11.35.04 3.09-.15 3.51-.04 9.07l-15.08.24c-.07-1.76-.02.86-.04-3.91-.26-4.43.4-2.81.4-3.31-2.79 2.69-5.78 4.71-8.96 6.06-3.18 1.35-6.57 2.02-10.18 2.02-6.36 0-11.37-1.71-15.04-5.14-3.66-3.42-5.5-7.75-5.5-12.98 0-3.46.83-6.55 2.5-9.26s4-4.79 7.01-6.23c3.01-1.44 7.34-2.7 13-3.78 7.64-1.42 12.93-2.75 15.88-3.98V84.8c0-3.12-.78-5.34-2.33-6.67s-4.48-1.99-8.78-1.99c-2.91 0-5.18.57-6.81 1.7-1.63 1.14-2.95 3.13-3.96 5.98zm21.88 13.15c-2.09.69-5.41 1.52-9.95 2.48-4.54.96-7.5 1.9-8.9 2.83-2.13 1.5-3.2 3.4-3.2 5.71 0 2.27.85 4.23 2.56 5.89 1.71 1.65 3.88 2.48 6.52 2.48 2.95 0 5.76-.96 8.44-2.89 1.98-1.46 3.28-3.25 3.9-5.37.43-1.38.64-4.02.64-7.91v-3.22h-.01zm30.88 29.13V43.4h16.06v82.69h-16.06v.01zM291.15 56.26a9.62 9.62 0 1 0 0-19.24 9.62 9.62 0 0 0 0 19.24z"/></g><defs><clipPath id="a"><path fill="#fff" d="M0 0h543v170H0z"/></clipPath></defs></svg>