<svg xmlns="http://www.w3.org/2000/svg" width="300" height="59" fill="none"><g fill="#A29DB7" clip-path="url(#a)"><path d="M49.162 1.169c2.02 3.335 2.93 6.77 2.93 11.108 0 13.838-11.816 31.814-21.405 44.437H8.784L0 4.2l19.178-1.82 4.645 37.367c4.34-7.068 9.694-18.176 9.694-25.749 0-4.145-.71-6.969-1.82-9.293L49.162 1.17zm24.856 23.127c3.53 0 12.414-1.614 12.414-6.663 0-2.424-1.714-3.633-3.735-3.633-3.535 0-8.173 4.238-8.679 10.296zm-.404 10c0 6.164 3.428 8.583 7.974 8.583 4.95 0 9.689-1.21 15.848-4.34l-2.32 15.752c-4.34 2.12-11.103 3.535-17.669 3.535-16.653 0-22.613-10.098-22.613-22.721 0-16.361 9.695-33.734 29.683-33.734 11.005 0 17.158 6.164 17.158 14.748.001 13.837-17.762 18.076-28.061 18.176zm83.408-21.004c0 2.02-.305 4.948-.611 6.863l-5.754 36.358h-18.675l5.25-33.33c.099-.903.405-2.723.405-3.733 0-2.424-1.515-3.029-3.336-3.029-2.419 0-4.844 1.11-6.459 1.92l-5.954 38.172h-18.78l8.58-54.434h16.253l.206 4.345c3.835-2.525 8.884-5.255 16.048-5.255 9.492-.001 12.827 4.848 12.827 12.123zm55.441-5.962c5.348-3.834 10.399-5.959 17.361-5.959 9.589 0 12.924 4.85 12.924 12.124 0 2.02-.305 4.949-.61 6.863l-5.748 36.358h-18.68l5.351-34.033c.098-.91.305-2.02.305-2.724 0-2.73-1.515-3.335-3.337-3.335-2.319 0-4.638 1.01-6.359 1.92l-5.953 38.173h-18.674l5.348-34.034c.099-.91.3-2.02.3-2.723 0-2.73-1.517-3.335-3.331-3.335-2.424 0-4.844 1.11-6.459 1.92l-5.959 38.172h-18.773l8.579-54.435h16.055l.505 4.545c3.735-2.724 8.779-5.454 15.543-5.454 5.856-.002 9.689 2.523 11.612 5.957zm67.446 15.856c0-4.443-1.112-7.473-4.441-7.473-7.369 0-8.883 13.027-8.883 19.69 0 5.056 1.415 8.185 4.743 8.185 6.965 0 8.581-13.738 8.581-20.402zM247.607 34.6c0-17.166 9.084-33.229 29.983-33.229 15.747 0 21.504 9.294 21.504 22.121 0 16.968-8.985 34.539-30.389 34.539-15.849 0-21.098-10.404-21.098-23.43z"/></g><defs><clipPath id="a"><path fill="#fff" d="M0 0h300v58.294H0z"/></clipPath></defs></svg>