<svg xmlns="http://www.w3.org/2000/svg" width="222" height="50" fill="none"><g clip-path="url(#a)"><path fill="#A19EB5" d="M111.2 12.5c-8.6 0-14.8 5.6-14.8 14.1s7 14.1 15.6 14.1c5.2 0 9.8-2.1 12.6-5.5l-6-3.5c-1.6 1.7-4 2.7-6.7 2.7-3.7 0-6.9-2-8.1-5.1h21.9c.2-.9.3-1.8.3-2.7 0-8.5-6.2-14.1-14.8-14.1Zm-7.4 11.3c1-3.1 3.6-5.1 7.4-5.1 3.7 0 6.4 2 7.4 5.1h-14.8ZM102 3.9 80.4 41.4 58.7 3.9h8.1l13.5 23.4L93.9 3.9h8.1ZM28.9 0l28.9 50H0L28.9 0Zm128.5 26.6c0 4.7 3.1 7.8 7.8 7.8 3.2 0 5.6-1.5 6.9-3.8l6 3.5c-2.5 4.1-7.1 6.6-12.9 6.6-8.6 0-14.8-5.6-14.8-14.1s6.2-14.1 14.8-14.1c5.7 0 10.4 2.5 12.9 6.6l-6 3.5c-1.2-2.4-3.7-3.8-6.9-3.8-4.7 0-7.8 3.1-7.8 7.8Zm64.5-22.7v35.9h-7V3.9h7Zm-26.6 8.6c-8.6 0-14.8 5.6-14.8 14.1s7 14.1 15.6 14.1c5.2 0 9.8-2.1 12.6-5.5l-6-3.5c-1.6 1.7-4 2.7-6.7 2.7-3.7 0-6.9-2-8.1-5.1h21.9c.2-.9.3-1.8.3-2.7.1-8.5-6.2-14.1-14.8-14.1Zm-7.4 11.3c1-3.1 3.6-5.1 7.4-5.1 3.8 0 6.4 2 7.4 5.1h-14.8Zm-39.8-10.5v7.6c-.8-.2-1.6-.4-2.5-.4-4.5 0-7.8 3.1-7.8 7.8v11.6h-7V13.3h7v7.2c0-4 4.6-7.2 10.3-7.2Z"/></g><defs><clipPath id="a"><path fill="#fff" d="M0 0h221.9v50H0z"/></clipPath></defs></svg>