<svg xmlns="http://www.w3.org/2000/svg" width="419" height="176" fill="none"><g fill="#A29DB7" clip-path="url(#a)"><path d="M57.64 147.5v.01l.17.08-.17-.09z"/><path d="m57.81 147.59-.17-.08v-.01l.17.09z"/><path d="M88.34.2C40.14.2.93 39.42.93 87.62s39.21 87.41 87.41 87.41c48.2 0 87.42-39.21 87.42-87.41C175.76 39.42 136.54.2 88.34.2zm83.57 75.46-15.53 1.88c-.62-4.25-1.64-8.37-3.01-12.33l14.47-5.98a82.444 82.444 0 0 1 4.07 16.43zm-59.63 56.29a50.626 50.626 0 0 0 15.13-12.54l11.86 9.79a66.135 66.135 0 0 1-20.25 16.59l-6.74-13.84zm4.06 15.18a65.333 65.333 0 0 1-26.5 6.24v-15.39c7.04-.2 13.73-1.86 19.76-4.68l6.74 13.83zm12.89-30.1a50.264 50.264 0 0 0 8.14-17.75l14.76 4.4a65.262 65.262 0 0 1-11.02 23.15l-11.88-9.8zm11.57-69.04a65.256 65.256 0 0 1 11.3 23.46l-14.93 3.73a50.102 50.102 0 0 0-8.5-17.76l12.13-9.43zm-14.01 7.09a50.674 50.674 0 0 0-15.11-12.12l7.34-13.51a66.103 66.103 0 0 1 19.93 16.19l-12.16 9.44zm11.18 41.26c.5-2.83.76-5.75.76-8.72 0-3.25-.31-6.43-.91-9.51l14.96-3.74c.88 4.28 1.34 8.71 1.34 13.25 0 4.5-.45 8.89-1.32 13.14l-14.83-4.42zm28.81-39.92-14.45 5.98a69.117 69.117 0 0 0-6.11-11.89l12.46-9.52c3.21 4.82 5.93 9.99 8.1 15.43zm-9.8-17.9-12.44 9.49a68.367 68.367 0 0 0-9.15-10.5l10.4-11.69c4.14 3.84 7.89 8.1 11.19 12.7zm-13.42-14.71L133.17 35.5c-3.41-2.94-7.1-5.54-11.04-7.78l7.45-13.74c5 2.8 9.68 6.1 13.98 9.83zm-16.63-11.26-7.44 13.75a68.44 68.44 0 0 0-12.65-4.93l3.91-15.15a83.898 83.898 0 0 1 16.18 6.33zM89.84 3.22c6.19.1 12.22.88 18.01 2.26l-3.91 15.14a68.865 68.865 0 0 0-14.1-1.76V3.22zm0 18.64c9.46.21 18.43 2.43 26.5 6.25l-7.35 13.54a49.825 49.825 0 0 0-19.15-4.4V21.86zm-3-18.64v15.64c-4.39.09-8.68.6-12.82 1.48L70.11 5.19c5.4-1.2 11-1.88 16.73-1.97zM37.74 129.6l11.87-9.79c4.25 5.11 9.49 9.37 15.43 12.48l-6.73 13.84a66.223 66.223 0 0 1-20.57-16.53zm20.07 17.99-.17-.08v-.01l.17.09zm-21.93-20.34a65.392 65.392 0 0 1-11.27-23.34l14.76-4.4a50.018 50.018 0 0 0 8.38 17.94l-11.87 9.8zm2.87-30.68-14.82 4.42c-.9-4.32-1.37-8.79-1.37-13.37 0-4.61.48-9.1 1.38-13.44l14.95 3.73c-.62 3.14-.94 6.39-.94 9.71 0 3.05.27 6.04.8 8.95zM24.63 71.25A65.245 65.245 0 0 1 36.18 47.6l12.14 9.42a50.2 50.2 0 0 0-8.77 17.97l-14.92-3.74zm13.42-25.98a66.076 66.076 0 0 1 20.24-16.15l7.34 13.52c-5.9 2.99-11.14 7.1-15.42 12.06l-12.16-9.43zM60.99 27.8c7.9-3.63 16.65-5.74 25.85-5.94v15.39c-6.55.18-12.79 1.63-18.49 4.11L60.99 27.8zm6.2-21.92 3.91 15.15a66.923 66.923 0 0 0-12.84 4.75l-7.45-13.76a83.466 83.466 0 0 1 16.38-6.14zM48.14 13.4l7.45 13.75a68.243 68.243 0 0 0-11.3 7.7l-10.4-11.68c4.39-3.73 9.16-7 14.25-9.77zM31.63 25.13l10.4 11.69c-3.49 3.17-6.64 6.7-9.41 10.53l-12.43-9.49c3.38-4.62 7.22-8.88 11.44-12.73zM18.47 40.31l12.44 9.51c-2.5 3.78-4.64 7.84-6.36 12.1L10.1 55.95a83.242 83.242 0 0 1 8.37-15.64zM9.02 58.74l14.46 5.99c-1.44 4.06-2.5 8.29-3.16 12.65L4.8 75.5c.83-5.8 2.26-11.4 4.22-16.76zM3.93 87.62c0-3.09.17-6.14.5-9.14l15.52 1.88c-.26 2.39-.39 4.81-.39 7.26 0 2.17.1 4.32.31 6.44L4.42 96.67c-.33-2.97-.49-5.99-.49-9.05zm.86 12.04 15.42-2.61c.63 4.64 1.74 9.13 3.26 13.42l-14.43 6.08a83.421 83.421 0 0 1-4.25-16.89zm5.34 19.68 14.4-6.07a68.23 68.23 0 0 0 6.29 12.01l-12.72 9.09c-3.15-4.7-5.83-9.73-7.97-15.03zm9.68 17.5 12.71-9.09c2.75 3.82 5.88 7.34 9.34 10.5l-10.33 11.76a84.808 84.808 0 0 1-11.72-13.17zm13.99 15.14 10.31-11.74c3.48 2.93 7.25 5.52 11.27 7.73l-7.51 13.72a84.205 84.205 0 0 1-14.07-9.71zm16.74 11.1 7.51-13.73c3.93 1.94 8.08 3.52 12.39 4.67l-3.16 15.35a83.942 83.942 0 0 1-16.74-6.29zm36.3 8.93c-5.7-.09-11.27-.76-16.64-1.95l3.15-15.32c4.35.98 8.86 1.53 13.49 1.63v15.64zm0-18.64c-9.2-.2-17.94-2.31-25.84-5.93l6.74-13.84a49.786 49.786 0 0 0 19.1 4.38v15.39zM40.95 87.62c0-26.14 21.26-47.4 47.39-47.4s47.39 21.26 47.39 47.4c0 26.13-21.26 47.39-47.39 47.39s-47.39-21.26-47.39-47.39zm48.89 84.39v-15.64c5.08-.11 10.03-.77 14.78-1.93l3.15 15.33a83.41 83.41 0 0 1-17.93 2.24zm20.84-2.99-3.16-15.35c4.24-1.23 8.31-2.86 12.17-4.84l7.51 13.71a82.925 82.925 0 0 1-16.52 6.48zm19.16-7.91-7.52-13.71c3.93-2.25 7.62-4.87 11.02-7.81l10.32 11.74c-4.25 3.7-8.88 6.98-13.82 9.78zm16.05-11.79-10.33-11.76a67.83 67.83 0 0 0 9.05-10.45l12.73 9.1c-3.37 4.76-7.2 9.15-11.45 13.11zm13.13-15.6-12.73-9.1c2.38-3.72 4.42-7.68 6.06-11.83l14.41 6.07a83.806 83.806 0 0 1-7.74 14.86zm8.81-17.67-14.44-6.08c1.45-4.21 2.51-8.61 3.12-13.14l15.42 2.61c-.8 5.74-2.19 11.3-4.1 16.61zm-11-22.21c.2-2.05.29-4.12.29-6.22 0-2.4-.12-4.77-.37-7.1l15.53-1.88c.32 2.95.48 5.95.48 8.98 0 2.98-.16 5.93-.46 8.83l-15.47-2.61z"/><path d="m57.81 147.59-.17-.08v-.01l.17.09zm174.83-77.8h8.93l11.66 33.27 11.49-33.27h8.94l-16.17 43.15h-8.6l-16.25-43.15zm78.04 10.72 5.45-4.43s-10.5-14.01-27.26-3.95c-3.28 1.97-5.53 5.4-5.76 9.22-.19 2.96.67 6.41 4.33 9.24 1.64 1.27 3.58 2.1 5.61 2.57l5.88 1.34c.99.23 2 .43 3.01.56 2.07.28 6.78 1.39 6.44 5.581-.16 1.97-1.41 3.67-3.13 4.64-3.32 1.85-10.18 3.58-19.32-5.2l-5.7 4.68s7.17 9.72 20.06 9.19c5.39-.22 10.57-2.51 13.92-6.73 2.23-2.82 3.81-6.65 2.09-11.2-1.25-3.28-3.94-5.8-7.21-7.08-2.72-1.06-6.83-2.38-12.01-3.18-1.63-.25-3.2-.88-4.49-1.91-1.88-1.5-1.62-4.81.86-6.43 2.41-1.58 5.42-1.82 8.28-1.41 2.83.42 6.5 1.54 8.95 4.5zm47.55 4.23 8.23-2.43s-.64-5.18-6.2-9.3c-7.22-5.35-17.22-5.51-24.25.09-4.19 3.34-7.86 9.1-7.91 19.03 0 0 .32 21.961 20.36 21.831 0 0 14.94 1.27 18.38-17.17l-7.79-1.6s-3.06 12.51-10.85 11.49c0 0-11.99-1.06-10.79-16.89.22-2.85.9-5.67 2.25-8.19 1.84-3.42 5.27-7.2 11.12-5.47 1.17.35 2.26.96 3.21 1.72 1.67 1.37 4.08 3.82 4.24 6.89zm39.6-16.24c-11.23 0-20.34 10.18-20.34 22.74 0 12.56 9.11 22.74 20.34 22.74s20.34-10.18 20.34-22.74c0-12.56-9.11-22.74-20.34-22.74zm0 37.88c-5.88 0-10.64-6.78-10.64-15.14s4.76-15.14 10.64-15.14c5.88 0 10.64 6.78 10.64 15.14s-4.76 15.14-10.64 15.14z"/></g><defs><clipPath id="a"><path fill="#fff" d="M0 0h419v176H0z"/></clipPath></defs></svg>