<svg width="164" height="126" fill="none" xmlns="http://www.w3.org/2000/svg"><path d="M9.831 0A9.69 9.69 0 0 0 .133 9.698C.133 16.164.589 22.61 1.502 29a240.887 240.887 0 0 1 0 67.982 136.64 136.64 0 0 0-1.37 19.301 9.69 9.69 0 0 0 9.699 9.698 9.69 9.69 0 0 0 9.698-9.698c0-6.465-.456-12.912-1.369-19.301a240.888 240.888 0 0 1 0-67.983 136.591 136.591 0 0 0 1.37-19.3A9.69 9.69 0 0 0 9.83 0Zm144.215 0a9.69 9.69 0 0 0-9.698 9.698c0 6.466.456 12.912 1.369 19.302a240.94 240.94 0 0 1 0 67.982 136.606 136.606 0 0 0-1.369 19.301 9.69 9.69 0 0 0 9.698 9.698 9.69 9.69 0 0 0 9.698-9.698c0-6.465-.456-12.912-1.369-19.301a240.865 240.865 0 0 1 0-67.983 136.608 136.608 0 0 0 1.369-19.3A9.69 9.69 0 0 0 154.046 0ZM45.878 23.14a9.69 9.69 0 0 0-9.698 9.699c0 6.446.627 12.893 1.844 19.225a118.669 118.669 0 0 1 0 45.011A100.4 100.4 0 0 0 36.18 116.3a9.69 9.69 0 0 0 9.698 9.698 9.69 9.69 0 0 0 9.698-9.698c0-6.446-.627-12.893-1.845-19.225a118.673 118.673 0 0 1 0-45.01 100.405 100.405 0 0 0 1.845-19.226 9.69 9.69 0 0 0-9.698-9.698Zm72.121 0a9.69 9.69 0 0 0-9.698 9.699c0 6.446.627 12.893 1.844 19.225a118.648 118.648 0 0 1 0 45.011 100.4 100.4 0 0 0-1.844 19.225 9.69 9.69 0 0 0 9.698 9.698 9.69 9.69 0 0 0 9.698-9.698c0-6.446-.627-12.893-1.844-19.225a118.648 118.648 0 0 1 0-45.01 100.404 100.404 0 0 0 1.844-19.226 9.69 9.69 0 0 0-9.698-9.698ZM81.94 45.924a9.69 9.69 0 0 0-9.698 9.698c0 6.427.951 12.836 2.795 18.997a39.388 39.388 0 0 1 0 22.686 66.296 66.296 0 0 0-2.795 18.997A9.69 9.69 0 0 0 81.94 126a9.69 9.69 0 0 0 9.699-9.698c0-6.427-.951-12.836-2.796-18.997a39.388 39.388 0 0 1 0-22.686 66.294 66.294 0 0 0 2.796-18.997 9.69 9.69 0 0 0-9.699-9.698Z" fill="#76E59F"/></svg>
