<svg width="126" height="18" fill="none" xmlns="http://www.w3.org/2000/svg"><path d="M20.07 1.252v15.376h-2.65V4.935c0-.055-.068-.08-.106-.038l-7.189 8.722a.075.075 0 0 1-.118 0L2.663 4.893c-.034-.043-.101-.017-.101.037v11.698H0V1.252a.08.08 0 0 1 .08-.08h2.794L9.99 9.949c.029.038.088.038.122 0l7.117-8.777h2.768a.08.08 0 0 1 .08.08h-.008Zm16.157 8.64v4.395c0 .906.156 1.635.552 2.338h-2.671a3.412 3.412 0 0 1-.464-1.698v-.02c-.948 1.17-2.802 2.165-5.275 2.165-2.604 0-6.072-1.062-6.072-4.239 0-3.177 3.468-4.218 6.072-4.218s4.327.995 5.275 2.162v-.885c0-2.604-1.588-3.775-4.702-3.775-1.757 0-3.156.383-4.521 1.175a.077.077 0 0 1-.106-.03l-.855-1.605a.077.077 0 0 1 .03-.105c1.504-.885 3.787-1.462 5.94-1.462 4.218 0 6.801 2.01 6.801 5.806l-.004-.004Zm-2.54 2.76c-.974-1.677-3.026-2.187-4.838-2.187-1.614 0-4.02.421-4.02 2.364 0 1.942 2.406 2.385 4.02 2.385 1.812 0 3.864-.531 4.837-2.187v-.375Zm11.916 3.975h-2.739L36.696 4.643c-.026-.05.012-.114.067-.114h2.697l4.694 9.41c.038.08.151.08.193 0l4.694-9.41h2.634c.059 0 .097.064.067.114l-6.147 11.984h.008Zm13.884-1.567c2.2 0 3.582-.556 4.888-1.694.03-.025.08-.025.106.004l1.394 1.496c.03.034.03.085-.004.114-1.647 1.441-3.725 2.111-6.518 2.111-4.838 0-7.619-2.516-7.619-6.493 0-3.978 2.781-6.536 7.442-6.536 4.348 0 7.175 2.276 7.175 6.515 0 .286-.02.442-.067.573h-11.95a.056.056 0 0 0-.055.063c.266 2.587 2.183 3.847 5.204 3.847h.005Zm-5.001-5.739 9.274-.02c.05 0 .089-.052.072-.098-.578-2.14-2.284-3.105-4.635-3.105-2.499 0-4.273 1.049-4.791 3.126a.08.08 0 0 0 .076.097h.004Zm13.94 7.304V4.7a.17.17 0 0 1 .172-.172h2.238a.17.17 0 0 1 .173.172v2.588c.956-1.918 3.164-2.975 5.62-3.005.055 0 .098.042.098.097v2.077a.076.076 0 0 1-.076.076c-2.659.021-4.833 1.146-5.642 3.4v6.692h-2.583Zm9.332-15.188c0-.839.708-1.437 1.656-1.437s1.635.594 1.635 1.437c0 .796-.683 1.437-1.635 1.437-.953 0-1.656-.64-1.656-1.437Zm2.958 15.19h-2.562V4.53h2.562v12.097Zm9.56.464c-4.66 0-7.483-2.54-7.483-6.493 0-3.953 2.827-6.536 7.483-6.536 3.33 0 5.39 1.328 6.464 3.034a.077.077 0 0 1-.038.114l-2.28.973c-.033.017-.075 0-.096-.033-.805-1.412-2.398-1.951-4.028-1.951-2.87 0-4.968 1.458-4.968 4.395 0 2.937 2.098 4.348 4.968 4.348 1.634 0 3.286-.56 4.095-2.014a.074.074 0 0 1 .097-.034l2.28.953a.077.077 0 0 1 .038.113c-1.075 1.795-3.14 3.123-6.532 3.123v.008Zm14.078-6.287-3.185 2.6v3.223h-2.583V.384c0-.05.042-.093.093-.093h2.393c.051 0 .093.042.093.093V10.74c0 .067.076.101.13.059l7.378-6.27h3.047c.046 0 .067.055.034.088l-5.394 4.644a.099.099 0 0 0-.013.135l5.794 7.155a.05.05 0 0 1-.038.08h-2.857l-4.786-5.815c-.026-.034-.076-.038-.11-.013h.004ZM126 13.075c0 2.25-2.208 4.02-6.468 4.02-2.924 0-5.482-.948-7.226-2.444a.08.08 0 0 1-.009-.114l1.285-1.407c.03-.03.076-.034.106-.009 1.407 1.189 3.358 1.96 5.907 1.96 2.229 0 3.953-.573 3.953-1.787 0-1.213-1.568-1.588-4.416-1.812-3.291-.244-6.426-1.015-6.426-3.598 0-2.364 2.427-3.818 6.489-3.818 2.435 0 4.719.856 6.139 1.871.038.026.042.08.013.114l-1.248 1.555c-.025.034-.071.038-.105.013-1.167-.881-2.76-1.522-4.93-1.547-1.635 0-3.91.333-3.91 1.656 0 1.235 1.921 1.458 4.395 1.614 3.708.265 6.447 1.28 6.447 3.733H126Z" fill="currentColor"/></svg>
